<mxfile host="65bd71144e">
    <diagram id="_FuN1XyTcrADWYR9OmvF" name="Page-1">
        <mxGraphModel dx="2656" dy="853" grid="1" gridSize="10" guides="1" tooltips="1" connect="1" arrows="1" fold="1" page="1" pageScale="1" pageWidth="850" pageHeight="1100" math="0" shadow="0">
            <root>
                <mxCell id="0"/>
                <mxCell id="1" parent="0"/>
                <mxCell id="2" value="Spectral" style="shape=umlFrame;whiteSpace=wrap;html=1;width=120;height=30;boundedLbl=1;verticalAlign=middle;align=left;spacingLeft=5;" vertex="1" parent="1">
                    <mxGeometry x="40" y="360" width="1440" height="360" as="geometry"/>
                </mxCell>
                <mxCell id="3" value="Login Page" style="rounded=0;whiteSpace=wrap;html=1;" vertex="1" parent="1">
                    <mxGeometry x="80" y="440" width="240" height="60" as="geometry"/>
                </mxCell>
                <mxCell id="4" value="Dashboard Page" style="rounded=0;whiteSpace=wrap;html=1;" vertex="1" parent="1">
                    <mxGeometry x="640" y="440" width="240" height="60" as="geometry"/>
                </mxCell>
                <mxCell id="5" value="- Project list&lt;br&gt;- Func: Search project&lt;br&gt;- Func: Create project&lt;br&gt;- Func:&amp;nbsp;Rename project&lt;br&gt;- Func:&amp;nbsp;Update project&lt;br&gt;- Func:&amp;nbsp;Delete project" style="rounded=0;whiteSpace=wrap;html=1;align=left;spacingTop=5;spacingLeft=5;spacingBottom=5;spacingRight=5;" vertex="1" parent="1">
                    <mxGeometry x="640" y="500" width="240" height="140" as="geometry"/>
                </mxCell>
                <mxCell id="6" value="- Email&lt;br&gt;- Password&lt;br&gt;- Func: Forgot password&lt;br&gt;- Func: Sign up" style="rounded=0;whiteSpace=wrap;html=1;align=left;spacingTop=5;spacingLeft=5;spacingBottom=5;spacingRight=5;" vertex="1" parent="1">
                    <mxGeometry x="80" y="500" width="240" height="140" as="geometry"/>
                </mxCell>
                <mxCell id="7" value="Profile Page" style="rounded=0;whiteSpace=wrap;html=1;" vertex="1" parent="1">
                    <mxGeometry x="360" y="440" width="240" height="60" as="geometry"/>
                </mxCell>
                <mxCell id="8" value="- Email&lt;br&gt;- Func: Change email&lt;br&gt;- Func: Change password&lt;br&gt;- Func: Delete account" style="rounded=0;whiteSpace=wrap;html=1;align=left;spacingTop=5;spacingLeft=5;spacingBottom=5;spacingRight=5;" vertex="1" parent="1">
                    <mxGeometry x="360" y="500" width="240" height="140" as="geometry"/>
                </mxCell>
                <mxCell id="9" value="Create Project Page" style="rounded=0;whiteSpace=wrap;html=1;" vertex="1" parent="1">
                    <mxGeometry x="920" y="440" width="240" height="60" as="geometry"/>
                </mxCell>
                <mxCell id="10" value="- Input project name&lt;br&gt;- Add description&lt;br&gt;- Set MS Convert parameters&lt;br&gt;- Add mass spec data to convert" style="rounded=0;whiteSpace=wrap;html=1;align=left;spacingTop=5;spacingLeft=5;spacingBottom=5;spacingRight=5;" vertex="1" parent="1">
                    <mxGeometry x="920" y="500" width="240" height="140" as="geometry"/>
                </mxCell>
                <mxCell id="11" value="Update Project Page" style="rounded=0;whiteSpace=wrap;html=1;" vertex="1" parent="1">
                    <mxGeometry x="1200" y="440" width="240" height="60" as="geometry"/>
                </mxCell>
                <mxCell id="12" value="- Update project name&lt;br&gt;- Edit description&lt;br&gt;- Add and remove mass spec data" style="rounded=0;whiteSpace=wrap;html=1;align=left;spacingTop=5;spacingLeft=5;spacingBottom=5;spacingRight=5;" vertex="1" parent="1">
                    <mxGeometry x="1200" y="500" width="240" height="140" as="geometry"/>
                </mxCell>
            </root>
        </mxGraphModel>
    </diagram>
</mxfile>